<?xml version="1.0" encoding="UTF-8"?>
<svg width="500" height="500" version="1.1" viewBox="100 50 500 500" xmlns="http://www.w3.org/2000/svg" xmlns:xlink="http://www.w3.org/1999/xlink" fill="none">
 <g fill="#ee4d2d">
  <path d="m418.88 195.78c8.3438 2.9688 17.25 4.0312 26.207 3.6406 34.609-2.1289 61.77-30.91 61.77-65.52 0-36.176-29.566-65.633-65.91-65.633-11.762 0-23.129 3.1367-32.984 8.8477-9.8594 5.7109-18.258 13.887-24.141 24.078-1.1211 1.9023-2.1289 3.8633-3.0234 5.9375-2.7422 6.0469-4.5352 12.602-5.2656 19.152-0.33594 2.7422-0.44922 5.2656-0.44922 7.6172 0.003906 27.719 17.586 52.582 43.797 61.879zm29.453-106.01c0.39062 0.95312 0.55859 1.8477 0.61719 2.6328l-5.4883 54.656c0 1.3984-1.1211 2.5195-2.5195 2.5195s-2.5195-1.1211-2.5742-3.0234l-5.0977-51.129c0-0.22266 0-0.44922-0.054687-0.67188l-0.28125-2.3555c0.16797-4.3125 3.6953-7.7266 8.0078-7.7266 0.78516 0 1.5664 0.11328 2.2969 0.33594 2.3516 0.67188 4.2539 2.4648 5.0938 4.7617zm-4.5352 104.27c-0.89453 0.16797-1.8477 0.28125-2.8555 0.28125-7.5586 0-13.719-6.1602-13.719-13.719 0-5.9922 3.7539-11.199 9.3516-13.047 1.1758-0.44922 2.7422-0.72656 4.3672-0.72656 7.5586 0 13.719 6.1602 13.719 13.777 0 6.4922-4.5352 12.145-10.863 13.434z"/>
  <path d="m448.55 364c-2.4648-3.8086-6.2734-6.4414-10.75-7.3906-1.1758-0.28125-2.3516-0.39062-3.5273-0.39062-3.2461 0-6.4414 0.95312-9.2383 2.8008l-21.168 13.719c-0.054688 0-0.44922 0.22266-0.50391 0.28125-3.6406 2.3516-6.2734 6.1602-7.2227 10.641-0.89453 4.4258-0.054687 8.9609 2.4062 12.711l61.656 95.367 50.008-32.48z"/>
  <path d="m369.37 162.4c-0.39062-1.0078-0.72656-2.0156-1.0625-3.0234-0.33594-0.83984-0.61719-1.625-0.89453-2.4062-0.28125-1.0625-0.55859-2.1289-0.89453-3.1914-0.16797-0.78516-0.44922-1.5664-0.61719-2.4062-0.28125-1.1211-0.44922-2.2969-0.67188-3.4141-0.16797-0.78516-0.33594-1.5117-0.44922-2.2969-0.22266-1.2891-0.33594-2.5742-0.44922-3.8633-0.11328-0.67188-0.16797-1.2891-0.22266-1.9609-0.16797-1.9609-0.22266-3.9219-0.22266-5.9375 0-1.5664 0.054687-3.2461 0.16797-4.9297v-0.39062c-11.703-6.8867-25.031-11.312-38.586-12.77-3.75-0.44922-7.4492-0.67188-11.145-0.67188-17.586 0-34.551 4.8164-49.727 14.168l-2.8008 1.7344c-11.703 7.5586-21.504 17.473-29.008 29.457l-1.5664 2.4062c-7.3906 12.602-11.984 27.105-13.16 41.832-1.1211 14.449 1.0625 29.23 6.3281 42.785 2.2969 6.1602 5.3203 12.098 9.0156 17.641 8.1758 12.711 18.93 23.07 31.863 30.801 31.922 18.984 71.121 18.199 102.26-2.0703 21.895-14.113 36.848-35.895 42.281-61.207v-0.054688c1.9609-9.0156 2.5742-18.312 1.9023-27.609-0.39063-0.16797-0.78516-0.39062-1.1758-0.50391-0.83984-0.39062-1.6797-0.78516-2.4648-1.1758-0.95312-0.44922-1.9023-0.89453-2.8555-1.3984-0.78516-0.39062-1.5664-0.83984-2.4062-1.2891-0.89453-0.50391-1.793-1.0625-2.6328-1.5664-0.78516-0.50391-1.5664-1.0078-2.2969-1.5117-0.83984-0.55859-1.6797-1.1758-2.5195-1.793-0.72656-0.50391-1.457-1.0625-2.1836-1.625-0.78516-0.61719-1.5664-1.2891-2.3516-1.9609-0.67969-0.5625-1.3516-1.1797-2.0234-1.7969-0.72656-0.67188-1.457-1.3984-2.1836-2.0703-0.67188-0.67188-1.2891-1.2891-1.9023-1.9609-0.67188-0.72656-1.3438-1.5117-2.0156-2.2383-0.61719-0.67188-1.1758-1.3438-1.7344-2.0703-0.67188-0.78516-1.2891-1.625-1.8477-2.4062-0.55859-0.72656-1.0625-1.457-1.5664-2.1836-0.61719-0.83984-1.1758-1.6797-1.6797-2.5742-0.50391-0.72656-0.95312-1.457-1.3984-2.2383-0.55859-0.89453-1.0078-1.793-1.5117-2.7461-0.44922-0.72656-0.83984-1.5117-1.2305-2.2969-0.44922-0.95312-0.89453-1.9023-1.2891-2.8555-0.39844-0.78906-0.73438-1.5742-1.0703-2.3594zm-87.809-22.789c2.4648-1.0078 5.0391-1.9609 7.6172-2.7422 2.9102-0.89453 6.0469 0.72656 7 3.6953 0.89453 2.9688-0.78516 6.1055-3.75 7-2.1836 0.67188-4.3672 1.457-6.4961 2.3516-0.67188 0.33594-1.457 0.44922-2.1836 0.44922-2.1836 0-4.1992-1.2305-5.1523-3.4141-1.1797-2.8047 0.10938-6.1094 2.9648-7.3398zm30.742 152.04c-43.512 0-78.848-35.504-78.848-79.129 0-22.008 9.2383-43.23 25.367-58.184 2.2969-2.0703 5.8242-1.9609 7.9531 0.33594 2.0703 2.2383 1.9609 5.8242-0.33594 7.8945-13.832 12.824-21.785 31.023-21.785 49.953 0 37.465 30.352 67.93 67.648 67.93 3.0781 0 5.6016 2.5195 5.6016 5.6016 0 3.0781-2.5195 5.5977-5.6016 5.5977z"/>
  <path d="m417.36 350.62-18.871-29.121c-0.22266-0.39062-0.28125-0.78516-0.44922-1.1758-2.9688 2.2969-5.9922 4.4805-9.1289 6.5508-3.1367 2.0156-6.3281 3.8633-9.5195 5.6016 0.28125 0.28125 0.61719 0.50391 0.83984 0.89453l18.871 29.121z"/>
  <path d="m439.93 210.73c-1.1211 0-2.1836-0.11328-3.25-0.16797-0.89453-0.054688-1.793-0.054688-2.6875-0.16797-1.2891-0.11328-2.5742-0.28125-3.8633-0.44922-0.83984-0.16797-1.6797-0.22266-2.5742-0.39062-1.3438-0.22266-2.6875-0.55859-4.0312-0.83984-0.16797-0.054688-0.28125-0.054688-0.44922-0.10938 0.28125 8.9023-0.44922 17.75-2.3516 26.375-5.9922 28.281-22.734 52.527-47.098 68.32-17.977 11.703-38.418 17.586-58.855 17.586-19.039 0-38.082-5.0977-55.273-15.289-14.449-8.6797-26.375-20.215-35.504-34.328-4.0898-6.2148-7.4492-12.879-10.078-19.77-5.8242-15.008-8.2891-31.527-7-47.602 1.2891-16.465 6.3828-32.648 14.785-46.871l1.6797-2.5742c8.3438-13.273 19.266-24.359 32.426-32.871l2.9102-1.793c20.496-12.656 43.961-17.863 67.984-15.121 13.609 1.457 26.992 5.7695 39.09 12.207 0.11328-0.39062 0.22266-0.72656 0.33594-1.1211 0.39062-1.5664 0.78516-3.1914 1.2891-4.7617 0.28125-0.83984 0.55859-1.6797 0.83984-2.4648 0.50391-1.5117 1.1211-3.0234 1.7344-4.5352 0.33594-0.72656 0.61719-1.5117 1.0078-2.2383 0.11328-0.33594 0.28125-0.72656 0.44922-1.0625-13.441-6.832-27.832-11.145-42.84-12.77-27.664-3.1367-54.879 2.9102-78.68 17.527l-0.89453 0.50391c-0.55859 0.33594-1.1758 0.67188-1.7383 1.0625-0.22266 0.16797-0.39062 0.28125-0.61719 0.44922-15.23 9.8008-27.887 22.625-37.574 38.078-0.61719 0.89453-1.0078 1.5664-1.457 2.2383l-0.44922 0.72656c-9.6328 16.297-15.566 35.055-17.023 54.039-1.457 18.656 1.2852 37.641 8.0078 54.891 3.1914 8.2305 7.1133 15.961 11.703 22.902 18.145 28.113 46.145 47.488 78.793 54.488 8.793 1.9023 17.641 2.8008 26.375 2.8008 23.855 0 47.266-6.832 67.762-20.16 36.117-23.41 57.621-63.953 57.117-106.74z"/>
 </g>
</svg>
